
<svg xmlns="http://www.w3.org/2000/svg" viewBox="0 0 299.15 318.71"><defs><style>.cls-1{fill:#fff;}</style></defs><title>Logo lfebrand dark</title><g id="Layer_2" data-name="Layer 2"><g id="Layer_1-2" data-name="Layer 1"><path class="cls-1" d="M193.36,152c-12-23.89-31.88-36.54-58.57-36.75-25.3-.21-43.44,12.29-55.41,34.39a4.58,4.58,0,0,0-.48,1.27c-12.33,22.57-24.17,45.42-36.29,68.29l25.18,16.66c1-1.8,2-3.25,2.72-4.8,8.24-17.14,16.6-34.22,24.6-51.47A73.18,73.18,0,0,1,112,155.77c3.11-2.84,6.45-5.41,9.89-8.17,13.23-5.79,28.07-2.5,38.83,8.62,10,10.31,13.16,26.92,6.45,39.09-9,16.23-19.5,31.59-29.33,47.31-1.25,2-5,5.66-4,7.77C137,256.9,157,266.25,157,266.25s14.7-18.2,17.55-22.68c7.52-11.81,13.43-23.3,17.85-31.76C202.77,192,203.31,171.86,193.36,152Z"/><rect class="cls-1" x="244.19" y="228.67" width="28.81" height="82.03" transform="translate(199.85 -99.3) rotate(34.75)"/><path class="cls-1" d="M291,100.38c-9.56-22.77-23.4-42.72-42.45-58.93C202.25,2.06,149.72-10.33,91.62,8.92,48.06,23.36,18.38,53.6,1.07,96,.7,96.92.32,98.33,0,98.3c7.73,5,17.4,11.66,25.27,17,3-6.75,5.78-13.48,9-20a117.54,117.54,0,0,1,9-15C68.39,44.53,111.17,26.1,153.65,30.7c46.75,5.06,81.52,29.22,104.49,70.21,1.56,2.79,2.94,5.68,4.29,8.63a18.67,18.67,0,0,0-1.14,6.41A18.93,18.93,0,1,0,291,100.38Zm-10.74,29.5A13.93,13.93,0,1,1,294.15,116,13.95,13.95,0,0,1,280.22,129.88Z"/><path class="cls-1" d="M98,89a18.92,18.92,0,0,0-37.79-1.28,52.68,52.68,0,0,0-8.83,11.65c-13.11,23.81-25.59,48-38.4,72.14l25.18,16.66c1-1.8,2-3.25,2.72-4.8,8.24-17.14,16.61-34.22,24.6-51.47A73.18,73.18,0,0,1,82.4,108.09c.22-.2.44-.38.66-.57A19,19,0,0,0,98,89ZM79.1,75.08A13.93,13.93,0,1,1,65.18,89,13.95,13.95,0,0,1,79.1,75.08Z"/><path class="cls-1" d="M207.54,82.87c-5.49-4.05-11.72-7.11-17.8-10.74L173.5,98c1,.49,1.55.84,2.18,1.11a88.28,88.28,0,0,1,35.41,28c20.86,27.29,23.3,66,5.81,94.77-11.81,19.42-24.26,38.42-38.28,56.34a13.59,13.59,0,0,1-4.25,3.47,18.92,18.92,0,1,0,24.26,20.52,28.75,28.75,0,0,1,3.62-5.8,566.33,566.33,0,0,0,41.45-61.29A99.4,99.4,0,0,0,257,196.77C262.58,149.32,246,111.24,207.54,82.87ZM193.8,299.79a13.93,13.93,0,1,1-13.93-13.93A13.94,13.94,0,0,1,193.8,299.79Z"/></g></g></svg>