<svg width="16" height="18" viewBox="0 0 16 18" fill="none" xmlns="http://www.w3.org/2000/svg">
<path d="M-1.90735e-06 14.4389L-1.90735e-06 9.42386C-1.90735e-06 9.31113 0.141942 9.26123 0.211414 9.34997C0.69677 9.9689 1.23597 10.7667 3.55254 10.8949C3.5789 10.8963 3.60527 10.8946 3.63148 10.8943L11.9207 10.8949C13.9231 10.8949 15.5386 12.5515 15.4712 14.569C15.4068 16.4988 13.7584 18 11.8276 18H3.56106C1.59438 18 -1.90735e-06 16.4056 -1.90735e-06 14.4389Z" fill="#FFF"/>
<path d="M15.4733 3.56106V8.57614C15.4733 8.68887 15.3313 8.73877 15.2618 8.65003C14.7765 8.0311 14.2373 7.23328 11.9207 7.10507C11.8943 7.10365 11.868 7.10539 11.8418 7.10571L3.55252 7.10507C1.55015 7.10507 -0.0653831 5.44849 0.00203615 3.43096C0.0664555 1.50122 1.71483 0 3.64568 0H11.9122C13.8789 0 15.4733 1.59438 15.4733 3.56106Z" fill="#FFF"/>
</svg>
